<svg width="19" height="19" viewBox="0 0 19 19" fill="none" xmlns="http://www.w3.org/2000/svg">
<path opacity="0.3" d="M9.65137 8.79199C7.44223 8.79199 5.65137 7.00113 5.65137 4.79199C5.65137 2.58285 7.44223 0.791992 9.65137 0.791992C11.8605 0.791992 13.6514 2.58285 13.6514 4.79199C13.6514 7.00113 11.8605 8.79199 9.65137 8.79199Z" fill="#A4A4A4"/>
<path d="M0.652019 17.9912C1.03963 13.2185 4.91328 10.792 9.63471 10.792C14.4226 10.792 18.3563 13.0852 18.6493 17.992C18.661 18.1875 18.6493 18.792 17.8981 18.792C14.1925 18.792 8.68609 18.792 1.37887 18.792C1.12808 18.792 0.630905 18.2512 0.652019 17.9912Z" fill="#A4A4A4"/>
</svg>
