<svg width="22" height="22" viewBox="0 0 22 22" fill="none" xmlns="http://www.w3.org/2000/svg">
<path d="M18.424 14.2584C18.5182 14.0387 18.7335 13.896 18.9692 13.8951H19.0482C20.4836 13.8951 21.6514 12.7273 21.6514 11.292C21.6514 9.85664 20.4836 8.68885 19.0482 8.68885H18.9024C18.7001 8.68803 18.5149 8.58582 18.4056 8.42126C18.3935 8.3615 18.375 8.30306 18.3502 8.24695C18.2512 8.02259 18.2973 7.76448 18.4676 7.58832L18.5141 7.54181C18.5154 7.54058 18.5167 7.53931 18.5179 7.53804C19.0093 7.0461 19.2797 6.39223 19.2793 5.6969C19.2789 5.00275 19.0086 4.35024 18.5183 3.85912C18.517 3.85781 18.5157 3.85654 18.5144 3.85523C18.0228 3.36415 17.3696 3.09382 16.6748 3.09382C16.6743 3.09382 16.6738 3.09382 16.6733 3.09382C15.978 3.09419 15.3244 3.36534 14.8333 3.85695L14.7847 3.90559C14.6086 4.07585 14.3505 4.12195 14.1261 4.02294C14.1233 4.02175 14.1205 4.02052 14.1177 4.01933C13.898 3.92516 13.7554 3.70979 13.7545 3.47411V3.39512C13.7545 1.95978 12.5867 0.791992 11.1513 0.791992C9.71593 0.791992 8.54818 1.95978 8.54818 3.39512V3.54093C8.54736 3.74321 8.44515 3.92848 8.2806 4.03774C8.22084 4.04984 8.16239 4.06838 8.10628 4.09312C7.88197 4.19217 7.62382 4.14607 7.44766 3.97577L7.39737 3.92544C6.90572 3.43437 6.25255 3.16404 5.55775 3.16404C5.55726 3.16404 5.55668 3.16404 5.55623 3.16404C4.8609 3.1644 4.20732 3.43556 3.71456 3.92889C3.22315 4.42079 2.95274 5.07466 2.95315 5.76999C2.95352 6.46532 3.22467 7.11886 3.71628 7.6099L3.76489 7.6585C3.93518 7.83466 3.98128 8.09273 3.88227 8.31713C3.87501 8.33349 3.86837 8.35006 3.86217 8.36684C3.77752 8.59693 3.56584 8.75017 3.32143 8.75898H3.25445C1.81916 8.75898 0.651367 9.92677 0.651367 11.3621C0.651367 12.7975 1.81916 13.9653 3.25457 13.9652H3.40034C3.63946 13.9662 3.85475 14.1087 3.94892 14.3285C3.95011 14.3313 3.95134 14.3341 3.95253 14.3368C4.05158 14.5612 4.00548 14.8193 3.83515 14.9955L3.78654 15.0441C3.78543 15.0452 3.78433 15.0464 3.78318 15.0475C3.29284 15.5392 3.02304 16.1924 3.02341 16.8869C3.02378 17.5823 3.29493 18.2358 3.78687 18.7272C3.78806 18.7284 3.78929 18.7297 3.79052 18.7309C4.80623 19.7431 6.45595 19.7414 7.46927 18.7269L7.51792 18.6782C7.69404 18.508 7.95215 18.4618 8.1765 18.5609C8.19282 18.5681 8.2094 18.5747 8.22617 18.5809C8.45631 18.6656 8.6095 18.8773 8.61836 19.1217V19.1887C8.61836 20.624 9.78615 21.7918 11.2215 21.7918C12.6569 21.7918 13.8246 20.624 13.8247 19.1887V19.043C13.8257 18.8039 13.9682 18.5886 14.188 18.4944C14.1908 18.4932 14.1935 18.492 14.1963 18.4908C14.4207 18.3917 14.6788 18.4378 14.855 18.6081L14.9053 18.6584C15.3969 19.1495 16.0501 19.4199 16.7449 19.4198C16.7454 19.4198 16.7459 19.4198 16.7464 19.4198C17.4418 19.4194 18.0953 19.1483 18.5881 18.655C19.6024 17.6395 19.6015 15.988 18.5864 14.9739L18.5378 14.9253C18.3675 14.7492 18.3214 14.4911 18.4204 14.2667C18.4217 14.2639 18.4228 14.2612 18.424 14.2584ZM17.3274 16.1144C17.3296 16.1166 17.3318 16.1188 17.334 16.121L17.3869 16.174C17.7405 16.5273 17.7409 17.1024 17.3862 17.4574C17.2151 17.6288 16.9875 17.7232 16.7453 17.7233C16.7451 17.7233 16.745 17.7233 16.7448 17.7233C16.5028 17.7233 16.2753 17.6291 16.1031 17.4571L16.0504 17.4045C16.0482 17.4022 16.046 17.4001 16.0437 17.3979C15.3699 16.7387 14.3778 16.5581 13.5151 16.937C12.6759 17.2987 12.1317 18.1221 12.128 19.0396V19.1887C12.128 19.6886 11.7213 20.0953 11.2214 20.0953C10.7215 20.0953 10.3149 19.6886 10.3149 19.1887V19.1098C10.3149 19.1032 10.3148 19.0966 10.3146 19.0899C10.2926 18.1502 9.71359 17.3319 8.83693 16.9982C7.97905 16.6311 6.99731 16.8142 6.32884 17.468C6.32663 17.4702 6.32441 17.4724 6.3222 17.4746L6.2692 17.5276C5.91598 17.8812 5.34082 17.8816 4.98714 17.5283C4.98612 17.5273 4.98505 17.5263 4.98407 17.5253C4.81381 17.3543 4.72005 17.1274 4.71989 16.8861C4.71972 16.6439 4.81394 16.4163 4.98505 16.2449C4.98604 16.244 4.98698 16.243 4.98797 16.242L5.03874 16.1912C5.04096 16.189 5.04317 16.1868 5.04535 16.1845C5.70442 15.5108 5.88509 14.5187 5.50632 13.656C5.14464 12.8168 4.3211 12.2724 3.40358 12.2688H3.25441C2.75455 12.2688 2.34789 11.862 2.34789 11.3622C2.34789 10.8623 2.7546 10.4557 3.25441 10.4556H3.3334C3.34001 10.4556 3.34665 10.4555 3.35326 10.4554C4.29312 10.4334 5.1113 9.85434 5.44508 8.97768C5.81209 8.1198 5.62908 7.13814 4.97521 6.46967C4.97304 6.46745 4.97082 6.46524 4.96861 6.46303L4.91566 6.41003C4.74433 6.23888 4.64992 6.01128 4.64979 5.76913C4.64963 5.52701 4.74384 5.2993 4.91635 5.12658C5.08751 4.95526 5.3151 4.86084 5.55726 4.86072C5.55746 4.86072 5.55759 4.86072 5.55779 4.86072C5.79978 4.86072 6.0273 4.95489 6.19952 5.12695L6.25218 5.17957C6.25436 5.18179 6.25661 5.184 6.25883 5.18618C6.89116 5.80469 7.80375 6.00189 8.62681 5.71072C8.70457 5.70075 8.78082 5.68004 8.85325 5.64899C9.69493 5.28826 10.2412 4.46348 10.2448 3.54441V3.39524C10.2448 2.89538 10.6515 2.48872 11.1513 2.48872C11.6512 2.48872 12.0579 2.89543 12.0579 3.39528V3.47764C12.0615 4.39175 12.6059 5.2153 13.4451 5.57701C14.3079 5.95591 15.2998 5.77512 15.9737 5.11604C15.9759 5.11387 15.9781 5.11165 15.9804 5.10944L16.0334 5.05649C16.2045 4.88516 16.4321 4.79075 16.6742 4.79062C16.6744 4.79062 16.6746 4.79062 16.6748 4.79062C16.916 4.79062 17.1429 4.88422 17.3139 5.05427C17.3149 5.05525 17.3158 5.0562 17.3168 5.05718C17.4881 5.22834 17.5826 5.45593 17.5827 5.69809C17.5828 5.93959 17.4892 6.16665 17.319 6.33781C17.3182 6.33863 17.3173 6.33945 17.3165 6.34031L17.2638 6.39297C17.2616 6.39514 17.2594 6.39736 17.2572 6.39962C16.6387 7.03195 16.4415 7.94458 16.7327 8.7676C16.7427 8.8454 16.7634 8.92165 16.7944 8.99409C17.1552 9.83576 17.98 10.382 18.899 10.3857H19.0482C19.5481 10.3857 19.9547 10.7923 19.9547 11.2922C19.9547 11.792 19.548 12.1987 19.0482 12.1987H18.9658C18.0517 12.2023 17.2282 12.7467 16.8665 13.5859C16.4876 14.4484 16.6683 15.4406 17.3274 16.1144Z" fill="#A4A4A4"/>
<path d="M11.1505 7.81055C9.23134 7.81055 7.66992 9.37192 7.66992 11.2911C7.66992 13.2103 9.2313 14.7717 11.1505 14.7717C13.0697 14.7717 14.6311 13.2103 14.6311 11.2911C14.6311 9.37192 13.0697 7.81055 11.1505 7.81055ZM11.1505 13.075C10.1668 13.075 9.36653 12.2748 9.36653 11.2911C9.36653 10.3074 10.1668 9.50711 11.1505 9.50711C12.1342 9.50711 12.9345 10.3074 12.9345 11.2911C12.9345 12.2747 12.1342 13.075 11.1505 13.075Z" fill="#A4A4A4"/>
</svg>
