<svg width="22" height="22" viewBox="0 0 22 22" fill="none" xmlns="http://www.w3.org/2000/svg">
<path fill-rule="evenodd" clip-rule="evenodd" d="M1.81934 16.4997V11.9163C1.81934 10.9038 2.64015 10.083 3.65267 10.083H10.986C11.9985 10.083 12.8193 10.9038 12.8193 11.9163V16.4997C12.8193 17.5122 11.9985 18.333 10.986 18.333H3.75876L2.68904 19.3569C2.37103 19.6612 1.84331 19.4359 1.84331 18.9957V16.7969C1.82754 16.7002 1.81934 16.6009 1.81934 16.4997ZM5.49961 13.2913C5.49961 13.0382 5.70481 12.833 5.95794 12.833H10.5413C10.7944 12.833 10.9996 13.0382 10.9996 13.2913C10.9996 13.5445 10.7944 13.7497 10.5413 13.7497H5.95794C5.70481 13.7497 5.49961 13.5445 5.49961 13.2913ZM8.70794 14.6667C8.45481 14.6667 8.24961 14.8719 8.24961 15.125C8.24961 15.3782 8.45481 15.5834 8.70794 15.5834H10.5413C10.7944 15.5834 10.9996 15.3782 10.9996 15.125C10.9996 14.8719 10.7944 14.6667 10.5413 14.6667H8.70794Z" fill="#E5E5E5"/>
<path fill-rule="evenodd" clip-rule="evenodd" d="M20.2484 16.5588C20.564 16.8744 21.1036 16.6498 21.102 16.2035L21.087 12.0132V5.06579C21.087 3.78681 20.0502 2.75 18.7712 2.75H7.96423C6.68525 2.75 5.64844 3.78681 5.64844 5.06579V8.79678H12.107C13.2116 8.79678 14.107 9.69221 14.107 10.7968V14.3289H18.0186L20.2484 16.5588Z" fill="#5CBCE3"/>
</svg>
