<svg width="22" height="19" viewBox="0 0 22 19" fill="none" xmlns="http://www.w3.org/2000/svg">
<path fill-rule="evenodd" clip-rule="evenodd" d="M14 17.5229C14 18.265 14.9624 18.5564 15.374 17.9389L21.2227 9.16603C21.5549 8.66761 21.1976 8 20.5986 8H16V2.47708C16 1.73503 15.0376 1.44363 14.626 2.06106L8.77735 10.834C8.44507 11.3324 8.80237 12 9.40139 12H14V17.5229Z" fill="#B5B5C3"/>
<path opacity="0.3" fill-rule="evenodd" clip-rule="evenodd" d="M2 3H8.5C9.32843 3 10 3.67157 10 4.5C10 5.32843 9.32843 6 8.5 6H2V3ZM2 15H8.5C9.32843 15 10 15.6716 10 16.5C10 17.3284 9.32843 18 8.5 18H2V15ZM5.5 9H0V12H5.5C6.32843 12 7 11.3284 7 10.5C7 9.67157 6.32843 9 5.5 9Z" fill="#B5B5C3"/>
</svg>
