<svg width="23" height="23" viewBox="0 0 23 23" fill="none" xmlns="http://www.w3.org/2000/svg">
<circle opacity="0.1" cx="11.5" cy="11.793" r="11" fill="#685FE4"/>
<path d="M15.3167 8.9666C15.2638 8.91158 15.2009 8.86791 15.1315 8.83811C15.0621 8.80831 14.9877 8.79297 14.9126 8.79297C14.8374 8.79297 14.763 8.80831 14.6937 8.83811C14.6243 8.86791 14.5613 8.91158 14.5084 8.9666L10.2676 13.3456L8.48588 11.5024C8.43093 11.4477 8.36607 11.4046 8.295 11.3758C8.22393 11.3469 8.14804 11.3327 8.07166 11.3341C7.99527 11.3354 7.9199 11.3523 7.84984 11.3837C7.77978 11.4151 7.7164 11.4604 7.66333 11.5171C7.61025 11.5737 7.56852 11.6406 7.54051 11.7139C7.5125 11.7872 7.49877 11.8655 7.50009 11.9442C7.50141 12.023 7.51776 12.1007 7.54821 12.173C7.57866 12.2452 7.62261 12.3106 7.67756 12.3653L9.86344 14.6193C9.91635 14.6744 9.97931 14.718 10.0487 14.7478C10.118 14.7776 10.1924 14.793 10.2676 14.793C10.3427 14.793 10.4171 14.7776 10.4865 14.7478C10.5559 14.718 10.6188 14.6744 10.6718 14.6193L15.3167 9.82948C15.3745 9.77451 15.4206 9.7078 15.4522 9.63354C15.4837 9.55929 15.5 9.4791 15.5 9.39804C15.5 9.31697 15.4837 9.23679 15.4522 9.16253C15.4206 9.08828 15.3745 9.02157 15.3167 8.9666Z" fill="#685FE4"/>
</svg>
