<svg width="23" height="23" viewBox="0 0 23 23" fill="none" xmlns="http://www.w3.org/2000/svg">
<circle opacity="0.1" cx="11.5" cy="11.293" r="11" fill="white"/>
<path d="M15.3167 8.4666C15.2638 8.41158 15.2009 8.36791 15.1315 8.33811C15.0621 8.30831 14.9877 8.29297 14.9126 8.29297C14.8374 8.29297 14.763 8.30831 14.6937 8.33811C14.6243 8.36791 14.5613 8.41158 14.5084 8.4666L10.2676 12.8456L8.48588 11.0024C8.43093 10.9477 8.36607 10.9046 8.295 10.8758C8.22393 10.8469 8.14804 10.8327 8.07166 10.8341C7.99527 10.8354 7.9199 10.8523 7.84984 10.8837C7.77978 10.9151 7.7164 10.9604 7.66333 11.0171C7.61025 11.0737 7.56852 11.1406 7.54051 11.2139C7.5125 11.2872 7.49877 11.3655 7.50009 11.4442C7.50141 11.523 7.51776 11.6007 7.54821 11.673C7.57866 11.7452 7.62261 11.8106 7.67756 11.8653L9.86344 14.1193C9.91635 14.1744 9.97931 14.218 10.0487 14.2478C10.118 14.2776 10.1924 14.293 10.2676 14.293C10.3427 14.293 10.4171 14.2776 10.4865 14.2478C10.5559 14.218 10.6188 14.1744 10.6718 14.1193L15.3167 9.32948C15.3745 9.27451 15.4206 9.2078 15.4522 9.13354C15.4837 9.05929 15.5 8.9791 15.5 8.89804C15.5 8.81697 15.4837 8.73679 15.4522 8.66253C15.4206 8.58828 15.3745 8.52157 15.3167 8.4666Z" fill="white"/>
</svg>
