<svg width="19" height="20" viewBox="0 0 19 20" fill="none" xmlns="http://www.w3.org/2000/svg">
<circle cx="9.24637" cy="9.99978" r="8.39676" fill="white" stroke="#212121" stroke-width="1.5"/>
<path d="M12.452 7.71208C12.4076 7.66731 12.3548 7.63178 12.2966 7.60753C12.2384 7.58328 12.176 7.5708 12.1129 7.5708C12.0499 7.5708 11.9875 7.58328 11.9293 7.60753C11.8711 7.63178 11.8182 7.66731 11.7738 7.71208L8.21565 11.275L6.72074 9.77534C6.67464 9.73081 6.62022 9.6958 6.56058 9.6723C6.50095 9.6488 6.43728 9.63727 6.37319 9.63838C6.3091 9.63949 6.24586 9.65321 6.18708 9.67876C6.1283 9.70431 6.07512 9.74118 6.03059 9.78728C5.98606 9.83338 5.95104 9.8878 5.92754 9.94743C5.90404 10.0071 5.89252 10.0707 5.89363 10.1348C5.89474 10.1989 5.90846 10.2622 5.93401 10.3209C5.95955 10.3797 5.99643 10.4329 6.04253 10.4774L7.87655 12.3114C7.92095 12.3562 7.97377 12.3917 8.03197 12.416C8.09017 12.4402 8.1526 12.4527 8.21565 12.4527C8.2787 12.4527 8.34112 12.4402 8.39933 12.416C8.45753 12.3917 8.51035 12.3562 8.55475 12.3114L12.452 8.41416C12.5005 8.36944 12.5392 8.31516 12.5657 8.25474C12.5921 8.19432 12.6058 8.12908 12.6058 8.06312C12.6058 7.99716 12.5921 7.93192 12.5657 7.8715C12.5392 7.81108 12.5005 7.7568 12.452 7.71208V7.71208Z" fill="#212121"/>
</svg>
