<svg width="26" height="26" viewBox="0 0 26 26" fill="none" xmlns="http://www.w3.org/2000/svg">
<path fill-rule="evenodd" clip-rule="evenodd" d="M5.83301 4.33398C5.00458 4.33398 4.33301 5.00556 4.33301 5.83398V7.16732C4.33301 7.99574 5.00458 8.66732 5.83301 8.66732H10.4163C11.2448 8.66732 11.9163 7.99575 11.9163 7.16732V5.83398C11.9163 5.00556 11.2448 4.33398 10.4163 4.33398H5.83301ZM15.583 17.334C14.7546 17.334 14.083 18.0056 14.083 18.834V20.1673C14.083 20.9957 14.7546 21.6673 15.583 21.6673H20.1663C20.9948 21.6673 21.6663 20.9957 21.6663 20.1673V18.834C21.6663 18.0056 20.9948 17.334 20.1663 17.334H15.583Z" fill="#E5E5E5"/>
<path opacity="0.3" fill-rule="evenodd" clip-rule="evenodd" d="M15.583 4.33398C14.7546 4.33398 14.083 5.00556 14.083 5.83398V13.6673C14.083 14.4957 14.7546 15.1673 15.583 15.1673H20.1663C20.9948 15.1673 21.6663 14.4957 21.6663 13.6673V5.83398C21.6663 5.00556 20.9948 4.33398 20.1663 4.33398H15.583ZM5.83301 10.834C5.00458 10.834 4.33301 11.5056 4.33301 12.334V20.1673C4.33301 20.9957 5.00458 21.6673 5.83301 21.6673H10.4163C11.2448 21.6673 11.9163 20.9957 11.9163 20.1673V12.334C11.9163 11.5056 11.2448 10.834 10.4163 10.834H5.83301Z" fill="#E5E5E5"/>
</svg>
