<svg width="33" height="21" viewBox="0 0 33 21" fill="none" xmlns="http://www.w3.org/2000/svg">
<path d="M20.2422 10.833C20.2422 16.3565 15.7676 20.8321 10.2461 20.8321C4.72455 20.8321 0.25 16.3556 0.25 10.833C0.25 5.3105 4.72564 0.833984 10.2461 0.833984C15.7665 0.833984 20.2422 5.3105 20.2422 10.833Z" fill="#E2574C"/>
<path d="M22.2511 0.833984C20.0093 0.833984 17.9455 1.58093 16.2776 2.82785L16.2856 2.82884C16.6137 3.14578 16.9756 3.36884 17.2546 3.7337L15.1747 3.76671C14.8488 4.09572 14.5518 4.45367 14.2718 4.82566H17.9394C18.2184 5.16059 18.4764 5.45165 18.7104 5.82155H13.6069C13.4199 6.14354 13.247 6.47452 13.096 6.81843H19.2914C19.4534 7.16136 19.5984 7.4204 19.7214 7.7834H12.729C12.618 8.12841 12.5231 8.48132 12.451 8.84125H20.0143C20.0884 9.18725 20.1453 9.50715 20.1843 9.83319H12.301C12.268 10.1622 12.251 10.4961 12.251 10.8331H20.2412C20.2412 11.1871 20.2162 11.5151 20.1803 11.8331H12.301C12.335 12.1721 12.385 12.505 12.451 12.833H20.0023C19.9243 13.157 19.8343 13.4829 19.7213 13.8209H12.706C12.8119 14.1629 12.941 14.4948 13.0819 14.8188H19.2914C19.1195 15.1828 18.9245 15.4737 18.7095 15.8147H13.589C13.791 16.1646 14.014 16.4986 14.2559 16.8186L17.9395 16.8735C17.6256 17.2505 17.2226 17.4775 16.8556 17.8075C16.8755 17.8235 16.2686 17.8055 15.0737 17.7865C16.8916 19.6624 19.4323 20.8322 22.251 20.8322C27.7735 20.8322 32.2501 16.3556 32.2501 10.8331C32.2501 5.31072 27.7745 0.833984 22.2511 0.833984Z" fill="#F4B459"/>
</svg>
