<svg width="25" height="25" viewBox="0 0 25 25" fill="none" xmlns="http://www.w3.org/2000/svg">
<path d="M11.4686 16.7651C12.017 17.2043 12.7967 17.204 13.3448 16.7645L20.0167 11.4133L20.2457 11.2306C20.9974 10.6309 20.9987 9.48873 20.2482 8.88744L13.3449 3.35603C12.7967 2.91681 12.0172 2.91681 11.469 3.35604L4.5612 8.89102C3.8122 9.49116 3.81172 10.6306 4.5602 11.2314L4.78687 11.4133L11.4686 16.7651Z" fill="#E5E5E5"/>
<path opacity="0.3" fill-rule="evenodd" clip-rule="evenodd" d="M13.3347 19.4702C12.7866 19.9094 12.0072 19.9094 11.459 19.4704L5.52621 14.7185C5.11478 14.389 4.51294 14.4616 4.19168 14.8795V14.8795C3.87519 15.2913 3.95204 15.8815 4.36341 16.1985L11.4902 21.6902C12.0297 22.106 12.7815 22.106 13.3211 21.6904L20.4445 16.2034C20.8594 15.8838 20.9367 15.2885 20.6172 14.8736V14.8736C20.2932 14.4529 19.6872 14.3802 19.2729 14.7121L13.3347 19.4702Z" fill="#E5E5E5"/>
</svg>
