<svg width="21" height="20" viewBox="0 0 21 20" fill="none" xmlns="http://www.w3.org/2000/svg">
<path fill-rule="evenodd" clip-rule="evenodd" d="M10.2162 18.3336C9.08703 18.3336 7.9862 18.3211 6.89703 18.2986C5.5037 18.2711 4.53953 17.3678 4.38203 15.9411C4.11953 13.5745 3.67037 7.99612 3.6662 7.94029C3.63787 7.59612 3.89453 7.29445 4.2387 7.26695C4.57787 7.25779 4.88453 7.49612 4.91203 7.83945C4.9162 7.89612 5.36453 13.4553 5.62453 15.8036C5.7137 16.6145 6.1512 17.0328 6.92287 17.0486C9.0062 17.0928 11.132 17.0953 13.4237 17.0536C14.2437 17.0378 14.687 16.6278 14.7787 15.7978C15.037 13.4695 15.487 7.89612 15.492 7.83945C15.5195 7.49612 15.8237 7.25612 16.1645 7.26695C16.5087 7.29529 16.7654 7.59612 16.7379 7.94029C16.7329 7.99695 16.2812 13.5895 16.0212 15.9353C15.8595 17.3911 14.8979 18.277 13.4462 18.3036C12.3354 18.3228 11.2637 18.3336 10.2162 18.3336" fill="#212121"/>
<path fill-rule="evenodd" clip-rule="evenodd" d="M17.2674 5.82471H3.13574C2.79074 5.82471 2.51074 5.54471 2.51074 5.19971C2.51074 4.85471 2.79074 4.57471 3.13574 4.57471H17.2674C17.6124 4.57471 17.8924 4.85471 17.8924 5.19971C17.8924 5.54471 17.6124 5.82471 17.2674 5.82471" fill="#212121"/>
<path fill-rule="evenodd" clip-rule="evenodd" d="M14.5442 5.82449C13.5959 5.82449 12.7726 5.14866 12.5859 4.21866L12.3834 3.20533C12.3409 3.05116 12.1651 2.91699 11.9651 2.91699H8.43756C8.23756 2.91699 8.06173 3.05116 8.0109 3.24366L7.81673 4.21866C7.6309 5.14866 6.80673 5.82449 5.8584 5.82449C5.5134 5.82449 5.2334 5.54449 5.2334 5.19949C5.2334 4.85449 5.5134 4.57449 5.8584 4.57449C6.2134 4.57449 6.52173 4.32116 6.59173 3.97283L6.79423 2.95949C7.00006 2.18283 7.67256 1.66699 8.43756 1.66699H11.9651C12.7301 1.66699 13.4026 2.18283 13.6001 2.92199L13.8117 3.97283C13.8809 4.32116 14.1892 4.57449 14.5442 4.57449C14.8892 4.57449 15.1692 4.85449 15.1692 5.19949C15.1692 5.54449 14.8892 5.82449 14.5442 5.82449" fill="#212121"/>
</svg>
