<svg width="21" height="20" viewBox="0 0 21 20" fill="none" xmlns="http://www.w3.org/2000/svg">
<path fill-rule="evenodd" clip-rule="evenodd" d="M17.303 18.2827H11.2588C10.9138 18.2827 10.6338 18.0027 10.6338 17.6577C10.6338 17.3127 10.9138 17.0327 11.2588 17.0327H17.303C17.648 17.0327 17.928 17.3127 17.928 17.6577C17.928 18.0027 17.648 18.2827 17.303 18.2827" fill="black"/>
<mask id="mask0_2293_17190" style="mask-type:alpha" maskUnits="userSpaceOnUse" x="1" y="2" width="15" height="17">
<path fill-rule="evenodd" clip-rule="evenodd" d="M1.67773 2.5H15.9949V18.283H1.67773V2.5Z" fill="white"/>
</mask>
<g mask="url(#mask0_2293_17190)">
<path fill-rule="evenodd" clip-rule="evenodd" d="M10.9363 4.18054L3.09046 13.993C2.94796 14.1714 2.89546 14.4014 2.94796 14.6222L3.51546 17.0264L6.04796 16.9947C6.2888 16.9922 6.5113 16.8847 6.6588 16.7014C9.33963 13.3472 14.4505 6.9522 14.5955 6.7647C14.7321 6.54304 14.7855 6.2297 14.7138 5.92804C14.6405 5.61887 14.448 5.35637 14.1705 5.18887C14.1113 5.14804 12.7071 4.05804 12.6638 4.02387C12.1355 3.60054 11.3646 3.67387 10.9363 4.18054V4.18054ZM3.02213 18.283C2.73296 18.283 2.4813 18.0847 2.4138 17.8022L1.7313 14.9097C1.59046 14.3105 1.73046 13.6922 2.11463 13.2122L9.96463 3.39387C9.96796 3.39054 9.97046 3.38637 9.9738 3.38304C10.8346 2.35387 12.3913 2.2022 13.4413 3.0447C13.483 3.0772 14.8771 4.16054 14.8771 4.16054C15.3838 4.4622 15.7796 5.00137 15.9296 5.6397C16.0788 6.27137 15.9705 6.92304 15.623 7.47387C15.5971 7.5147 15.5746 7.5497 7.63463 17.483C7.25213 17.9597 6.6788 18.2372 6.06296 18.2447L3.03046 18.283H3.02213Z" fill="black"/>
</g>
<path fill-rule="evenodd" clip-rule="evenodd" d="M13.5306 9.73698C13.3973 9.73698 13.2639 9.69448 13.1498 9.60782L8.60642 6.11782C8.33308 5.90782 8.28142 5.51615 8.49142 5.24115C8.70225 4.96782 9.09392 4.91698 9.36808 5.12698L13.9122 8.61615C14.1856 8.82615 14.2373 9.21865 14.0264 9.49282C13.9039 9.65282 13.7181 9.73698 13.5306 9.73698" fill="black"/>
</svg>
