<svg width="21" height="20" viewBox="0 0 21 20" fill="none" xmlns="http://www.w3.org/2000/svg">
<path fill-rule="evenodd" clip-rule="evenodd" d="M8.79419 16.5599H1.41278C0.927792 16.5599 0.53418 16.1663 0.53418 15.6813C0.53418 15.1963 0.927792 14.8027 1.41278 14.8027H8.79419C9.27917 14.8027 9.67279 15.1963 9.67279 15.6813C9.67279 16.1663 9.27917 16.5599 8.79419 16.5599Z" fill="black"/>
<path fill-rule="evenodd" clip-rule="evenodd" d="M19.4668 5.20593H12.0866C11.6016 5.20593 11.208 4.81232 11.208 4.32733C11.208 3.84234 11.6016 3.44873 12.0866 3.44873H19.4668C19.9518 3.44873 20.3454 3.84234 20.3454 4.32733C20.3454 4.81232 19.9518 5.20593 19.4668 5.20593Z" fill="black"/>
<mask id="mask0_2149_17057" style="mask-type:alpha" maskUnits="userSpaceOnUse" x="0" y="0" width="8" height="8">
<path fill-rule="evenodd" clip-rule="evenodd" d="M0.5 0.636719H7.79331V7.88997H0.5V0.636719Z" fill="white"/>
</mask>
<g mask="url(#mask0_2149_17057)">
<path fill-rule="evenodd" clip-rule="evenodd" d="M4.14677 2.39392C3.10534 2.39392 2.2572 3.23269 2.2572 4.26475C2.2572 5.29564 3.10534 6.13324 4.14677 6.13324C5.18938 6.13324 6.03635 5.29564 6.03635 4.26475C6.03635 3.23269 5.18938 2.39392 4.14677 2.39392ZM4.14677 7.89044C2.13654 7.89044 0.5 6.26444 0.5 4.26475C0.5 2.26506 2.13654 0.636719 4.14677 0.636719C6.15818 0.636719 7.79355 2.26506 7.79355 4.26475C7.79355 6.26444 6.15818 7.89044 4.14677 7.89044Z" fill="black"/>
</g>
<path fill-rule="evenodd" clip-rule="evenodd" d="M17.354 13.766C16.3114 13.766 15.4633 14.6048 15.4633 15.6356C15.4633 16.6677 16.3114 17.5053 17.354 17.5053C18.3954 17.5053 19.2424 16.6677 19.2424 15.6356C19.2424 14.6048 18.3954 13.766 17.354 13.766ZM17.354 19.2625C15.3426 19.2625 13.7061 17.6353 13.7061 15.6356C13.7061 13.636 15.3426 12.0088 17.354 12.0088C19.3642 12.0088 20.9996 13.636 20.9996 15.6356C20.9996 17.6353 19.3642 19.2625 17.354 19.2625Z" fill="black"/>
</svg>
