<svg width="31" height="31" viewBox="0 0 31 31" fill="none" xmlns="http://www.w3.org/2000/svg">
<g clip-path="url(#clip0_2205_16869)">
<path d="M27.4966 8.00126C24.5376 6.29317 20.7538 7.30815 19.0439 10.2672L14.7335 17.734C13.4862 19.8902 15.0919 20.6437 16.8823 21.7172L21.0299 24.1111C22.4345 24.9212 24.2285 24.4403 25.0387 23.0376L29.4698 15.364C30.9585 12.7854 30.0751 9.48993 27.4966 8.00126Z" fill="#EA4335"/>
<path d="M22.6192 11.0919L18.4716 8.698C16.1819 7.42699 14.8853 7.34287 13.9453 8.83699L7.82803 19.4312C6.11991 22.3883 7.13673 26.1703 10.0939 27.8747C12.6725 29.3633 15.968 28.48 17.4566 25.9014L23.6909 15.1024C24.5047 13.6979 24.0238 11.902 22.6192 11.0919Z" fill="#FBBC04"/>
<path d="M23.4175 5.64574L20.5043 3.96326C17.282 2.10338 13.1617 3.20614 11.3018 6.42846L5.75511 16.0351C4.93581 17.4524 5.42227 19.2665 6.8396 20.084L10.1022 21.9677C11.7133 22.8986 13.7725 22.3463 14.7034 20.7351L21.0401 9.76054C22.3532 7.48734 25.2591 6.70827 27.5323 8.02134L23.4175 5.64574Z" fill="#34A853"/>
<path d="M12.0898 9.17666L8.94068 7.3625C7.53614 6.55418 5.74212 7.03331 4.93197 8.43417L1.15369 14.963C-0.706194 18.1761 0.396568 22.2873 3.6189 24.1417L6.01644 25.5224L8.9242 27.1975L10.1861 27.9236C7.9458 26.424 7.23441 23.4193 8.60415 21.0528L9.58255 19.363L13.1652 13.1726C13.9735 11.7754 13.4925 9.98498 12.0898 9.17666Z" fill="#4285F4"/>
</g>
<defs>
<clipPath id="clip0_2205_16869">
<rect width="30" height="30" fill="white" transform="translate(0.25 0.833008)"/>
</clipPath>
</defs>
</svg>
