<svg width="24" height="24" viewBox="0 0 24 24" fill="none" xmlns="http://www.w3.org/2000/svg">
<path fill-rule="evenodd" clip-rule="evenodd" d="M3.94615 8.10594C3.39801 8.1735 3.00842 8.67261 3.07597 9.22075C3.58728 13.3695 6.89885 16.5929 11.0004 17.0486V18.0004H10.0004C8.89582 18.0004 8.00039 18.8958 8.00039 20.0004H16.0004C16.0004 18.8958 15.105 18.0004 14.0004 18.0004H13.0004V17.0488C17.1476 16.589 20.4828 13.3004 20.9411 9.09474C21.001 8.54571 20.6044 8.05213 20.0554 7.9923C19.5063 7.93247 19.0127 8.32905 18.9529 8.87808C18.5686 12.4047 15.5781 15.1039 12.0012 15.1039C8.46091 15.1039 5.49009 12.4582 5.06095 8.97612C4.9934 8.42798 4.49428 8.03839 3.94615 8.10594Z" fill="#E5E5E5"/>
<path opacity="0.3" fill-rule="evenodd" clip-rule="evenodd" d="M18 7C18 10.3137 15.3137 13 12 13C8.68629 13 6 10.3137 6 7C6 3.68629 8.68629 1 12 1C15.3137 1 18 3.68629 18 7ZM8.11556 6.1919C8.47711 6.16662 8.7907 6.43922 8.81599 6.80078C8.90331 8.0495 9.45602 8.98539 10.5074 9.66477C10.8118 9.86147 10.8991 10.2677 10.7024 10.5721C10.5057 10.8765 10.0995 10.9638 9.79505 10.7671C8.3967 9.86355 7.62282 8.55317 7.50668 6.89233C7.4814 6.53078 7.754 6.21719 8.11556 6.1919Z" fill="#E5E5E5"/>
</svg>
