<svg width="20" height="20" viewBox="0 0 20 20" fill="none" xmlns="http://www.w3.org/2000/svg">
<path fill-rule="evenodd" clip-rule="evenodd" d="M19.25 9.625C19.25 14.9407 14.9407 19.25 9.625 19.25C4.30926 19.25 0 14.9407 0 9.625C0 4.30926 4.30926 0 9.625 0C14.9407 0 19.25 4.30926 19.25 9.625ZM3.20774 9.6253C3.20774 13.1691 6.08058 16.042 9.62441 16.042C13.1682 16.042 16.0411 13.1691 16.0411 9.6253C16.0411 6.08147 13.1682 3.20863 9.62441 3.20863C6.08058 3.20863 3.20774 6.08147 3.20774 9.6253Z" fill="white"/>
<path opacity="0.3" fill-rule="evenodd" clip-rule="evenodd" d="M9.85786 13.9032C12.2204 13.9032 14.1356 11.988 14.1356 9.62543C14.1356 7.26288 12.2204 5.34766 9.85786 5.34766C7.4953 5.34766 5.58008 7.26288 5.58008 9.62543C5.58008 11.988 7.4953 13.9032 9.85786 13.9032Z" fill="white"/>
</svg>
