<svg width="24" height="24" viewBox="0 0 24 24" fill="none" xmlns="http://www.w3.org/2000/svg">
<path opacity="0.3" fill-rule="evenodd" clip-rule="evenodd" d="M9.87778 12.7067L7.75646 14.828C7.36594 15.2185 7.36594 15.8517 7.75646 16.2422C8.14699 16.6327 8.78015 16.6327 9.17068 16.2422L11.292 14.1209L11.9991 14.828C12.7802 15.609 12.7802 16.8754 11.9991 17.6564L9.17068 20.4848C8.38963 21.2659 7.1233 21.2659 6.34225 20.4848L3.51382 17.6564C2.73277 16.8754 2.73277 15.609 3.51382 14.828L6.34225 11.9995C7.1233 11.2185 8.38963 11.2185 9.17068 11.9995L9.87778 12.7067Z" fill="#E5E5E5"/>
<path fill-rule="evenodd" clip-rule="evenodd" d="M14.1215 11.2933L16.2428 9.17203C16.6333 8.7815 16.6333 8.14834 16.2428 7.75781C15.8523 7.36729 15.2191 7.36729 14.8286 7.75781L12.7073 9.87913L12.0002 9.17203C11.2191 8.39098 11.2191 7.12465 12.0002 6.3436L14.8286 3.51517C15.6096 2.73412 16.876 2.73412 17.657 3.51517L20.4854 6.3436C21.2665 7.12465 21.2665 8.39098 20.4854 9.17203L17.657 12.0005C16.876 12.7815 15.6096 12.7815 14.8286 12.0005L14.1215 11.2933Z" fill="#E5E5E5"/>
<path opacity="0.3" fill-rule="evenodd" clip-rule="evenodd" d="M4.22123 5.63635C3.8307 5.24582 3.8307 4.61266 4.22123 4.22213C4.61175 3.83161 5.24491 3.83161 5.63544 4.22213L7.04965 5.63635C7.44018 6.02687 7.44018 6.66004 7.04965 7.05056C6.65913 7.44108 6.02596 7.44108 5.63544 7.05056L4.22123 5.63635ZM8.34252 2.51504C8.34252 1.96275 8.79024 1.51504 9.34252 1.51504C9.89481 1.51504 10.3425 1.96275 10.3425 2.51504L10.3425 4.51504C10.3425 5.06732 9.89481 5.51504 9.34252 5.51504C8.79024 5.51504 8.34252 5.06732 8.34252 4.51504L8.34252 2.51504ZM1.68571 9.17189C1.68571 8.61961 2.13343 8.17189 2.68571 8.17189L4.68571 8.17189C5.238 8.17189 5.68571 8.61961 5.68571 9.17189C5.68571 9.72418 5.238 10.1719 4.68571 10.1719L2.68571 10.1719C2.13343 10.1719 1.68571 9.72418 1.68571 9.17189Z" fill="#E5E5E5"/>
<path opacity="0.3" fill-rule="evenodd" clip-rule="evenodd" d="M18.2425 19.6568C18.633 20.0473 19.2662 20.0473 19.6567 19.6568C20.0472 19.2663 20.0472 18.6331 19.6567 18.2426L18.2425 16.8284C17.8519 16.4378 17.2188 16.4378 16.8283 16.8284C16.4377 17.2189 16.4377 17.8521 16.8283 18.2426L18.2425 19.6568ZM21.3639 15.5355C21.9162 15.5355 22.3639 15.0878 22.3639 14.5355C22.3639 13.9832 21.9162 13.5355 21.3639 13.5355H19.3639C18.8116 13.5355 18.3639 13.9832 18.3639 14.5355C18.3639 15.0878 18.8116 15.5355 19.3639 15.5355L21.3639 15.5355ZM14.7071 22.1923C15.2594 22.1923 15.7071 21.7446 15.7071 21.1923L15.7071 19.1923C15.7071 18.64 15.2594 18.1923 14.7071 18.1923C14.1548 18.1923 13.7071 18.64 13.7071 19.1923L13.7071 21.1923C13.7071 21.7446 14.1548 22.1923 14.7071 22.1923Z" fill="#E5E5E5"/>
</svg>
