<svg width="18" height="18" viewBox="0 0 18 18" fill="none" xmlns="http://www.w3.org/2000/svg">
<path opacity="0.3" fill-rule="evenodd" clip-rule="evenodd" d="M7.40909 9.77875L5.81803 11.2814C5.52512 11.5581 5.52512 12.0066 5.81803 12.2832C6.11093 12.5598 6.58583 12.5598 6.87873 12.2832L8.4698 10.7805L9.00015 11.2814C9.58596 11.8347 9.58596 12.7317 9.00015 13.285L6.87873 15.2885C6.29292 15.8418 5.34313 15.8418 4.75732 15.2885L2.6359 13.285C2.05009 12.7317 2.05009 11.8347 2.6359 11.2814L4.75732 9.27786C5.34313 8.7246 6.29292 8.7246 6.87873 9.27786L7.40909 9.77875Z" fill="#9E9E9E"/>
<path fill-rule="evenodd" clip-rule="evenodd" d="M10.5912 8.77691L12.1823 7.27424C12.4752 6.99761 12.4752 6.54909 12.1823 6.27246C11.8894 5.99583 11.4145 5.99583 11.1216 6.27246L9.53052 7.77513L9.00016 7.27424C8.41435 6.72097 8.41435 5.82395 9.00016 5.27068L11.1216 3.26712C11.7074 2.71385 12.6572 2.71385 13.243 3.26712L15.3644 5.27068C15.9502 5.82395 15.9502 6.72097 15.3644 7.27424L13.243 9.2778C12.6572 9.83107 11.7074 9.83107 11.1216 9.2778L10.5912 8.77691Z" fill="#9E9E9E"/>
<path opacity="0.3" fill-rule="evenodd" clip-rule="evenodd" d="M3.16654 4.76935C2.87364 4.49271 2.87364 4.0442 3.16654 3.76757C3.45945 3.49093 3.93435 3.49093 4.22725 3.76757L5.28796 4.76935C5.58087 5.04598 5.58087 5.49449 5.28796 5.77113C4.99505 6.04776 4.52016 6.04776 4.22725 5.77113L3.16654 4.76935ZM6.25768 2.55826C6.25768 2.16704 6.59348 1.84989 7.00771 1.84989C7.42194 1.84989 7.75774 2.16704 7.75774 2.55826L7.75774 3.97499C7.75774 4.3662 7.42194 4.68335 7.00771 4.68335C6.59348 4.68335 6.25768 4.36621 6.25768 3.97499L6.25768 2.55826ZM1.26481 7.2738C1.26481 6.88258 1.60061 6.56543 2.01485 6.56543L3.51492 6.56543C3.92915 6.56543 4.26495 6.88258 4.26495 7.2738C4.26495 7.66502 3.92915 7.98216 3.51492 7.98216L2.01485 7.98216C1.60062 7.98216 1.26481 7.66502 1.26481 7.2738Z" fill="#9E9E9E"/>
<path opacity="0.3" fill-rule="evenodd" clip-rule="evenodd" d="M13.683 14.7021C13.9759 14.9788 14.4508 14.9788 14.7437 14.7021C15.0366 14.4255 15.0366 13.977 14.7437 13.7003L13.683 12.6986C13.3901 12.4219 12.9152 12.4219 12.6223 12.6986C12.3294 12.9752 12.3294 13.4237 12.6223 13.7003L13.683 14.7021ZM16.0241 11.7827C16.4383 11.7827 16.7741 11.4655 16.7741 11.0743C16.7741 10.6831 16.4383 10.366 16.0241 10.366L14.524 10.366C14.1098 10.366 13.774 10.6831 13.774 11.0743C13.774 11.4655 14.1098 11.7827 14.524 11.7827L16.0241 11.7827ZM11.0312 16.4982C11.4455 16.4982 11.7813 16.1811 11.7813 15.7899L11.7813 14.3731C11.7813 13.9819 11.4455 13.6648 11.0312 13.6648C10.617 13.6648 10.2812 13.9819 10.2812 14.3731L10.2812 15.7899C10.2812 16.1811 10.617 16.4982 11.0312 16.4982Z" fill="#9E9E9E"/>
</svg>
