<svg width="28" height="28" viewBox="0 0 28 28" fill="none" xmlns="http://www.w3.org/2000/svg">
<rect x="4.66699" y="4.66602" width="8.16667" height="8.16667" rx="1.5" fill="#E5E5E5"/>
<path opacity="0.3" fill-rule="evenodd" clip-rule="evenodd" d="M15.1641 6.16797C15.1641 5.33954 15.8356 4.66797 16.6641 4.66797H21.8307C22.6592 4.66797 23.3307 5.33954 23.3307 6.16797V11.3346C23.3307 12.1631 22.6592 12.8346 21.8307 12.8346H16.6641C15.8356 12.8346 15.1641 12.1631 15.1641 11.3346V6.16797ZM4.66406 16.668C4.66406 15.8395 5.33564 15.168 6.16406 15.168H11.3307C12.1592 15.168 12.8307 15.8395 12.8307 16.668V21.8346C12.8307 22.6631 12.1592 23.3346 11.3307 23.3346H6.16406C5.33563 23.3346 4.66406 22.6631 4.66406 21.8346V16.668ZM16.6641 15.168C15.8356 15.168 15.1641 15.8395 15.1641 16.668V21.8346C15.1641 22.6631 15.8356 23.3346 16.6641 23.3346H21.8307C22.6592 23.3346 23.3307 22.6631 23.3307 21.8346V16.668C23.3307 15.8395 22.6592 15.168 21.8307 15.168H16.6641Z" fill="#E5E5E5"/>
</svg>
