<svg width="17" height="18" viewBox="0 0 17 18" fill="none" xmlns="http://www.w3.org/2000/svg">
<path fill-rule="evenodd" clip-rule="evenodd" d="M15.4511 13.3778C15.7667 13.6934 16.3062 13.4688 16.3046 13.0225L16.2941 10.0602V4.69182C16.2941 3.70352 15.4929 2.90234 14.5046 2.90234H6.15373C5.16543 2.90234 4.36426 3.70352 4.36426 4.69182V7.15234H8.33296C9.98982 7.15234 11.333 8.49549 11.333 10.1523V11.8497H13.923L15.4511 13.3778Z" fill="#9E9E9E"/>
<path opacity="0.3" fill-rule="evenodd" clip-rule="evenodd" d="M1.40625 13.5277V9.986C1.40625 9.2036 2.04051 8.56934 2.82292 8.56934H8.48958C9.27199 8.56934 9.90625 9.2036 9.90625 9.986V13.5277C9.90625 14.3101 9.27199 14.9443 8.48958 14.9443H2.90489L2.2705 15.5515C1.9525 15.8559 1.42477 15.6305 1.42477 15.1903V13.7574C1.41259 13.6826 1.40625 13.6059 1.40625 13.5277ZM4.25017 11.0485C4.25017 10.8529 4.40873 10.6943 4.60434 10.6943H8.146C8.3416 10.6943 8.50017 10.8529 8.50017 11.0485C8.50017 11.2441 8.3416 11.4027 8.146 11.4027H4.60434C4.40873 11.4027 4.25017 11.2441 4.25017 11.0485ZM6.72933 12.111C6.53373 12.111 6.37517 12.2696 6.37517 12.4652C6.37517 12.6608 6.53373 12.8193 6.72933 12.8193H8.146C8.3416 12.8193 8.50017 12.6608 8.50017 12.4652C8.50017 12.2696 8.3416 12.111 8.146 12.111H6.72933Z" fill="#9E9E9E"/>
</svg>
