<svg width="20" height="24" viewBox="0 0 20 24" fill="none" xmlns="http://www.w3.org/2000/svg">
<path opacity="0.3" d="M19.0224 11.8915C18.1975 10.9282 17.8227 10.0924 17.8227 8.6742V8.19314C17.8227 6.34396 17.3985 5.1544 16.4738 3.96369C15.0485 2.11451 12.6492 1 10.3004 1H10.1994C7.8999 1 5.57574 2.06333 4.12581 3.83632C3.15059 5.05204 2.67701 6.29392 2.67701 8.19314V8.6742C2.67701 10.0924 2.32687 10.9282 1.47621 11.8915C0.852248 12.6011 0.651367 13.5121 0.651367 14.5004C0.651367 15.4875 0.976816 16.4246 1.62659 17.1854C2.47612 18.0975 3.6758 18.6798 4.90128 18.781C6.67554 18.9834 8.44979 19.0596 10.2499 19.0596C12.0488 19.0596 13.8242 18.9322 15.5984 18.781C16.8228 18.6798 18.0225 18.0975 18.8731 17.1854C19.5229 16.4246 19.8472 15.4875 19.8472 14.5004C19.8472 13.5121 19.6475 12.6011 19.0224 11.8915Z" fill="#22AAE2"/>
<path d="M7.94874 20.4528C7.46618 20.5643 6.94434 20.8247 6.94434 21.3934C6.97239 21.9347 7.28998 22.4146 7.7299 22.7183C8.29775 23.1629 8.96548 23.4438 9.66464 23.545C10.0372 23.5962 10.4165 23.5951 10.8026 23.545C11.5006 23.4438 12.1683 23.1629 12.7373 22.7194C13.1761 22.4146 13.4937 21.9347 13.5218 21.3934C13.5218 20.8247 12.9999 20.5643 12.5174 20.4528C11.9529 20.3334 8.51322 20.3334 7.94874 20.4528Z" fill="#22AAE2"/>
<circle cx="16.155" cy="3.73023" r="3.01343" fill="#22AAE2" stroke="white"/>
</svg>
