<svg width="27" height="27" viewBox="0 0 27 27" fill="none" xmlns="http://www.w3.org/2000/svg">
<g clip-path="url(#clip0_2205_16855)">
<path d="M24.339 6.918C24.094 6.61513 23.809 6.3386 23.4933 6.0918C23.5355 6.87489 23.463 7.70921 23.2743 8.59231C22.7593 11.005 21.5277 13.0552 19.7128 14.5208C17.8994 15.9855 15.6349 16.7597 13.1645 16.7597H9.56187L8.39573 22.2231C8.16672 23.2952 7.20512 24.0732 6.10901 24.0732H4.48503L4.19262 25.4155C4.11751 25.7612 4.20277 26.1223 4.42468 26.3978C4.64646 26.6732 4.98133 26.8335 5.33511 26.8335H9.3051C9.85673 26.8335 10.3334 26.4479 10.4485 25.9084L11.8121 19.5198H16.3605C18.5608 19.5198 20.5711 18.8354 22.1744 17.5406C23.7785 16.2453 24.8687 14.4251 25.3271 12.2773C25.7913 10.1055 25.4588 8.3024 24.339 6.918Z" fill="#4F46E5"/>
<path d="M7.25242 21.9785L8.61598 15.59H13.1645C15.3646 15.59 17.375 14.9056 18.9783 13.6107C20.5823 12.3154 21.6725 10.4952 22.1311 8.34743C22.5951 6.17563 22.2628 4.37255 21.1428 2.98815C20.0678 1.65879 18.2301 0.833008 16.3473 0.833008H6.43732C5.88754 0.833008 5.41202 1.21611 5.29494 1.75324L0.996547 21.4858C0.921324 21.8314 1.00658 22.1925 1.2286 22.468C1.45027 22.7434 1.78502 22.9036 2.13892 22.9036H6.10903C6.66066 22.9036 7.13707 22.5181 7.25242 21.9785ZM10.8908 5.32794H14.0089C14.7424 5.32794 15.3984 5.63534 15.8086 6.17145C16.2442 6.74094 16.3716 7.52839 16.158 8.33191C16.1552 8.34212 16.1527 8.35232 16.1502 8.36271C15.7579 10.0182 14.1268 11.3651 12.5145 11.3651H9.52648L10.8908 5.32794Z" fill="#4F46E5"/>
</g>
<defs>
<clipPath id="clip0_2205_16855">
<rect width="26" height="26" fill="white" transform="translate(0.25 0.833008)"/>
</clipPath>
</defs>
</svg>
