<svg width="17" height="18" viewBox="0 0 17 18" fill="none" xmlns="http://www.w3.org/2000/svg">
<path fill-rule="evenodd" clip-rule="evenodd" d="M3.83301 2.90234C3.28072 2.90234 2.83301 3.35006 2.83301 3.90234V14.6523C2.83301 15.2046 3.28072 15.6523 3.83301 15.6523H3.95801C4.51029 15.6523 4.95801 15.2046 4.95801 14.6523V3.90234C4.95801 3.35006 4.51029 2.90234 3.95801 2.90234H3.83301ZM7.37467 2.90234C6.82239 2.90234 6.37467 3.35006 6.37467 3.90234V14.6523C6.37467 15.2046 6.82239 15.6523 7.37467 15.6523H7.49967C8.05196 15.6523 8.49967 15.2046 8.49967 14.6523V3.90234C8.49967 3.35006 8.05196 2.90234 7.49967 2.90234H7.37467Z" fill="#9E9E9E"/>
<rect opacity="0.3" x="9.5459" y="3.55664" width="2.125" height="12.75" rx="1" transform="rotate(-19 9.5459 3.55664)" fill="#9E9E9E"/>
</svg>
