<svg width="21" height="21" viewBox="0 0 21 21" fill="none" xmlns="http://www.w3.org/2000/svg">
<mask id="mask0_2149_16893" style="mask-type:alpha" maskUnits="userSpaceOnUse" x="0" y="0" width="21" height="21">
<path fill-rule="evenodd" clip-rule="evenodd" d="M0.720703 0H20.0056V20.721H0.720703V0Z" fill="white"/>
</mask>
<g mask="url(#mask0_2149_16893)">
<path fill-rule="evenodd" clip-rule="evenodd" d="M5.92534 15.4403C6.15434 15.4403 6.38334 15.4693 6.60734 15.5293C7.28334 15.7113 7.87034 16.1633 8.21834 16.7703C8.44434 17.1513 8.56934 17.5963 8.57334 18.0503C8.57334 18.7003 9.09534 19.2213 9.73734 19.2213H10.9903C11.6293 19.2213 12.1513 18.7033 12.1543 18.0643C12.1503 17.3583 12.4263 16.6873 12.9313 16.1823C13.4293 15.6843 14.1253 15.3853 14.8213 15.4053C15.2773 15.4163 15.7163 15.5393 16.1033 15.7593C16.6603 16.0783 17.3713 15.8883 17.6933 15.3383L18.3573 14.2313C18.5053 13.9763 18.5483 13.6563 18.4693 13.3613C18.3913 13.0663 18.1953 12.8103 17.9313 12.6593C17.3133 12.3033 16.8723 11.7293 16.6893 11.0413C16.5083 10.3663 16.6073 9.62928 16.9603 9.02228C17.1903 8.62228 17.5273 8.28528 17.9313 8.05328C18.4733 7.73628 18.6633 7.02728 18.3483 6.47528C18.3353 6.45328 18.3233 6.43028 18.3133 6.40628L17.7273 5.39028C17.4083 4.83528 16.6983 4.64428 16.1413 4.96128C15.5393 5.31728 14.8233 5.41928 14.1353 5.23828C13.4483 5.06028 12.8723 4.62528 12.5133 4.01128C12.2833 3.62728 12.1583 3.18028 12.1543 2.72528C12.1633 2.38328 12.0433 2.07628 11.8253 1.85128C11.6083 1.62728 11.3033 1.50028 10.9903 1.50028H9.73734C9.42734 1.50028 9.13734 1.62128 8.91834 1.83928C8.70034 2.05828 8.58134 2.34928 8.58334 2.65928C8.56234 4.12128 7.36734 5.29828 5.92034 5.29828C5.45634 5.29328 5.00934 5.16828 4.62134 4.93628C4.07634 4.62628 3.36434 4.81728 3.04534 5.37228L2.36834 6.48528C2.05834 7.02328 2.24834 7.73428 2.80034 8.05528C3.61934 8.52928 4.13034 9.41328 4.13034 10.3613C4.13034 11.3093 3.61934 12.1923 2.79834 12.6673C2.24934 12.9853 2.05934 13.6923 2.37734 14.2423L3.00834 15.3303C3.16434 15.6113 3.41934 15.8143 3.71434 15.8973C4.00834 15.9793 4.33234 15.9443 4.60234 15.7943C4.99934 15.5613 5.46134 15.4403 5.92534 15.4403ZM10.989 20.721H9.736C8.267 20.721 7.072 19.527 7.072 18.058C7.07 17.877 7.018 17.689 6.921 17.526C6.764 17.252 6.51 17.056 6.217 16.978C5.926 16.9 5.607 16.943 5.345 17.095C4.717 17.445 3.978 17.53 3.302 17.34C2.627 17.149 2.044 16.685 1.702 16.07L1.077 14.993C0.345999 13.725 0.780999 12.1 2.047 11.368C2.406 11.161 2.629 10.775 2.629 10.361C2.629 9.947 2.406 9.56 2.047 9.353C0.779999 8.617 0.345999 6.988 1.076 5.72L1.754 4.607C2.475 3.353 4.105 2.911 5.376 3.641C5.549 3.744 5.737 3.796 5.928 3.798C6.551 3.798 7.072 3.284 7.082 2.652C7.078 1.955 7.353 1.286 7.854 0.781C8.357 0.277 9.025 0 9.736 0H10.989C11.705 0 12.401 0.294 12.9 0.805C13.398 1.319 13.673 2.024 13.652 2.739C13.654 2.9 13.707 3.086 13.803 3.249C13.962 3.519 14.213 3.709 14.511 3.787C14.809 3.861 15.121 3.821 15.386 3.664C16.666 2.933 18.295 3.371 19.026 4.641L19.649 5.72C19.665 5.749 19.679 5.777 19.691 5.806C20.353 7.057 19.911 8.632 18.681 9.351C18.502 9.454 18.357 9.598 18.257 9.772C18.102 10.041 18.059 10.361 18.137 10.655C18.217 10.955 18.408 11.204 18.677 11.358C19.284 11.707 19.737 12.295 19.918 12.974C20.099 13.652 20 14.388 19.647 14.995L18.983 16.101C18.252 17.357 16.623 17.792 15.356 17.06C15.187 16.963 14.992 16.91 14.798 16.905H14.792C14.503 16.905 14.206 17.028 13.99 17.243C13.771 17.462 13.651 17.754 13.653 18.064C13.646 19.533 12.451 20.721 10.989 20.721Z" fill="black"/>
</g>
<path fill-rule="evenodd" clip-rule="evenodd" d="M10.3638 8.47489C9.32382 8.47489 8.47782 9.32189 8.47782 10.3619C8.47782 11.4019 9.32382 12.2469 10.3638 12.2469C11.4038 12.2469 12.2498 11.4019 12.2498 10.3619C12.2498 9.32189 11.4038 8.47489 10.3638 8.47489ZM10.3635 13.7466C8.49654 13.7466 6.97754 12.2286 6.97754 10.3616C6.97754 8.49461 8.49654 6.97461 10.3635 6.97461C12.2305 6.97461 13.7495 8.49461 13.7495 10.3616C13.7495 12.2286 12.2305 13.7466 10.3635 13.7466Z" fill="black"/>
</svg>
