<svg width="31" height="30" viewBox="0 0 31 30" fill="none" xmlns="http://www.w3.org/2000/svg">
<path d="M15.6514 3.75V5M15.6514 25V26.25M26.9014 15H25.6514M5.65137 15H4.40137M23.6064 22.955L22.7226 22.0712M8.58012 7.92875L7.69637 7.045M23.6064 7.045L22.7226 7.92875M8.58012 22.0712L7.69637 22.955M20.6514 15C20.6514 16.3261 20.1246 17.5979 19.1869 18.5355C18.2492 19.4732 16.9774 20 15.6514 20C14.3253 20 13.0535 19.4732 12.1158 18.5355C11.1782 17.5979 10.6514 16.3261 10.6514 15C10.6514 13.6739 11.1782 12.4021 12.1158 11.4645C13.0535 10.5268 14.3253 10 15.6514 10C16.9774 10 18.2492 10.5268 19.1869 11.4645C20.1246 12.4021 20.6514 13.6739 20.6514 15Z" stroke="#22AAE2" stroke-width="2.33333" stroke-linecap="round" stroke-linejoin="round"/>
</svg>
