<svg width="22" height="22" viewBox="0 0 22 22" fill="none" xmlns="http://www.w3.org/2000/svg">
<path d="M16.4579 12.8005C14.9429 12.8005 13.7148 11.5724 13.7148 10.0575C13.7148 8.54255 14.9429 7.31445 16.4579 7.31445C17.9728 7.31445 19.2009 8.54255 19.2009 10.0575C19.2009 11.5724 17.9728 12.8005 16.4579 12.8005Z" fill="#5CBCE3"/>
<path d="M8.22866 10.0579C6.20875 10.0579 4.57129 8.42045 4.57129 6.40054C4.57129 4.38063 6.20875 2.74316 8.22866 2.74316C10.2486 2.74316 11.886 4.38063 11.886 6.40054C11.886 8.42045 10.2486 10.0579 8.22866 10.0579Z" fill="#5CBCE3"/>
<path d="M0.000595863 18.4693C0.355002 14.1054 3.89685 11.8867 8.21386 11.8867C12.5916 11.8867 16.1883 13.9835 16.4563 18.47C16.467 18.6487 16.4563 19.2015 15.7694 19.2015C12.3812 19.2015 7.3465 19.2015 0.665187 19.2015C0.435879 19.2015 -0.0187091 18.707 0.000595863 18.4693Z" fill="white"/>
<path fill-rule="evenodd" clip-rule="evenodd" d="M17.2319 19.2009C17.328 18.8068 17.3782 18.4009 17.3782 17.9862C17.3782 16.378 16.6231 14.9005 15.3613 13.738C15.5679 13.7226 15.7777 13.7148 15.9901 13.7148C19.1518 13.7148 21.7494 15.2874 21.9429 18.6523C21.9506 18.7863 21.9429 19.2009 21.4469 19.2009H17.2319Z" fill="white"/>
</svg>
