<svg width="132" height="36" viewBox="0 0 132 36" fill="none" xmlns="http://www.w3.org/2000/svg">
<g clip-path="url(#clip0)">
<path d="M31.9236 17.9501C31.5346 21.3583 28.5938 23.994 25.0649 23.8577C21.5721 23.7304 18.749 20.8493 18.6675 17.3411C18.5771 13.5784 21.5902 10.4974 25.3182 10.4974C26.1778 10.4974 26.9922 10.661 27.7523 10.9609C27.9966 11.0518 28.268 10.9973 28.449 10.8064L29.8425 9.40677C30.0144 9.23408 29.9692 8.95234 29.752 8.84327C28.3857 8.1071 26.8203 7.7072 25.1553 7.73446C20.0882 7.81626 15.962 11.9879 15.9077 17.0866C15.8535 22.358 20.0882 26.6479 25.3273 26.6388C30.4578 26.6297 34.6744 22.4398 34.7287 17.2866C34.7377 16.6958 34.6834 16.1233 34.593 15.5598C34.5658 15.378 34.3396 15.3144 34.2129 15.4416L32.1499 17.5138C32.0232 17.632 31.9417 17.7865 31.9236 17.9501Z" fill="white"/>
<path d="M15.1563 7.90716C14.7763 7.6345 14.3872 7.49817 14.0071 7.49817C13.5185 7.49817 13.1656 7.72538 12.9756 8.16164L8.05319 22.2217L2.83219 8.17073C2.74171 7.86171 2.4793 7.49817 1.75542 7.49817C1.34823 7.49817 0.950096 7.6345 0.588155 7.90716C0.199068 8.1889 0 8.52518 0 8.89782C0 9.03414 0.0452427 9.17956 0.135728 9.33407L6.53304 25.8026C6.01727 27.9021 5.2391 29.6926 4.23471 31.1104C3.23937 32.5191 2.15355 33.228 1.01344 33.228C0.570058 33.228 0.0452427 33.4734 0.0452427 34.6368C0.0452427 35.5365 0.515767 36.0092 1.41157 36.0092C2.03592 36.0092 2.66027 35.8819 3.25747 35.6183C3.84563 35.3639 4.35234 35.0821 4.76858 34.7822C5.19386 34.4823 5.63724 33.9915 6.09871 33.3098L7.11215 31.7193C7.3836 31.3103 7.70935 30.6469 8.08939 29.7471C8.47848 28.8291 8.73184 28.2202 8.85851 27.8748L9.5643 25.939L15.663 9.34316C15.7264 9.25227 15.7625 9.12503 15.7625 8.93417C15.7625 8.53427 15.5635 8.1889 15.1563 7.90716Z" fill="white"/>
<path d="M52.264 8.04339C51.9835 7.83435 51.6487 7.73438 51.2687 7.73438C50.8886 7.73438 50.5538 7.83435 50.2552 8.04339C49.9385 8.26151 49.7847 8.54326 49.7847 8.86136V19.4496C49.7847 20.7129 49.3142 21.849 48.3731 22.8397C47.4411 23.8212 46.3191 24.3211 45.0342 24.3211C43.7493 24.3211 42.6273 23.8212 41.6953 22.8397C40.7633 21.849 40.2837 20.7129 40.2837 19.4496V8.90681C40.2837 8.61597 40.1299 8.34331 39.8223 8.08883C39.5327 7.85253 39.1979 7.73438 38.845 7.73438C38.4378 7.73438 38.0849 7.85253 37.8044 8.09792C37.5149 8.34331 37.3701 8.61597 37.3701 8.90681V19.4769C37.3701 21.4945 38.1302 23.2941 39.6232 24.8119C41.1253 26.3297 42.944 27.1022 45.0342 27.1022C47.0973 27.1022 48.907 26.3297 50.4181 24.8119C51.9292 23.2941 52.6983 21.4945 52.6983 19.4769V8.87045C52.7164 8.54326 52.5626 8.2706 52.264 8.04339Z" fill="white"/>
<path d="M55.2598 18.6408V15.9506C55.2598 13.4421 56.0017 11.4153 57.4857 9.87936C58.9697 8.3343 61.1866 7.56177 64.1273 7.56177C66.0185 7.56177 67.602 7.88896 68.8778 8.53425C70.1536 9.17954 70.787 9.95207 70.787 10.8518C70.787 11.5153 70.5608 12.1788 70.0993 12.8513C69.6379 13.5239 69.0859 13.8602 68.4254 13.8602C68.2173 13.8602 67.7377 13.7057 66.9867 13.4057C66.2356 13.1058 65.4575 12.9513 64.6431 12.9513C62.4624 12.9513 61.3766 13.9602 61.3766 15.9687V18.6317C61.3766 20.6403 62.4805 21.6491 64.6883 21.6491C65.4756 21.6491 66.2356 21.4764 66.9505 21.1311C67.6743 20.7857 68.163 20.613 68.4254 20.613C69.1854 20.613 69.8098 20.9311 70.2984 21.5582C70.787 22.1944 71.0313 22.8488 71.0313 23.5396C71.0313 24.4666 70.3618 25.2755 69.0226 25.9753C67.6834 26.6751 66.0818 27.0205 64.2178 27.0205C61.2227 27.0205 58.9787 26.257 57.4948 24.7211C56.0017 23.2033 55.2598 21.1765 55.2598 18.6408Z" fill="white"/>
<path d="M73.3477 24.7392V9.66124C73.3477 9.10683 73.6282 8.66149 74.1982 8.31612C74.7592 7.97076 75.4741 7.79807 76.3427 7.79807C77.1028 7.79807 77.7452 7.97076 78.2701 8.31612C78.7949 8.66149 79.0573 9.11592 79.0573 9.67033V11.1427C79.4735 10.1884 80.125 9.35222 81.0118 8.63422C81.8895 7.91622 82.8034 7.56177 83.7535 7.56177H84.8936C85.4727 7.56177 85.9794 7.82534 86.4137 8.36157C86.8481 8.88871 87.0652 9.51582 87.0652 10.2338C87.0652 10.9791 86.8481 11.6153 86.4137 12.1515C85.9794 12.6877 85.4727 12.9513 84.8936 12.9513H83.7535C82.6224 12.9513 81.6271 13.4966 80.7584 14.5873C79.8897 15.6779 79.4554 17.0957 79.4554 18.8316V24.7483C79.4554 25.2209 79.1478 25.6572 78.5234 26.048C77.9081 26.4388 77.1752 26.6388 76.3337 26.6388C75.4922 26.6388 74.7864 26.4479 74.2073 26.0662C73.6372 25.6754 73.3477 25.2391 73.3477 24.7392Z" fill="white"/>
<path d="M89.1279 18.7225V9.69749C89.1279 9.22489 89.4265 8.78863 90.0328 8.38873C90.639 7.98883 91.3539 7.79797 92.1954 7.79797C92.9826 7.79797 93.6884 7.99792 94.3037 8.38873C94.919 8.77954 95.2266 9.2158 95.2266 9.68841V18.6861C95.2266 19.4496 95.5162 20.1312 96.0953 20.7402C96.6744 21.3491 97.344 21.649 98.1041 21.649C98.8642 21.649 99.5247 21.3491 100.095 20.7402C100.656 20.1403 100.945 19.4496 100.945 18.6861V9.65205C100.945 9.15218 101.253 8.71592 101.868 8.35238C102.484 7.97975 103.198 7.79797 104.013 7.79797C104.881 7.79797 105.605 7.97975 106.184 8.35238C106.764 8.72501 107.053 9.16127 107.053 9.66114V18.7225C107.053 20.9401 106.166 22.876 104.393 24.5392C102.619 26.2024 100.529 27.0295 98.1131 27.0295C95.67 27.0295 93.5617 26.1933 91.7882 24.5392C90.0147 22.876 89.1279 20.9401 89.1279 18.7225Z" fill="white"/>
<path d="M111.152 4.57157C110.519 4.03534 110.202 3.39914 110.202 2.67205C110.202 1.94496 110.519 1.31785 111.152 0.790709C111.786 0.26357 112.546 0 113.442 0C114.31 0 115.052 0.26357 115.686 0.790709C116.31 1.31785 116.627 1.94496 116.627 2.67205C116.627 3.39914 116.31 4.03534 115.686 4.57157C115.052 5.1078 114.31 5.38046 113.442 5.38046C112.546 5.38046 111.786 5.11689 111.152 4.57157Z" fill="white"/>
<path d="M110.41 24.7392V9.66114C110.41 9.10673 110.691 8.66139 111.252 8.31602C111.813 7.97066 112.546 7.79797 113.441 7.79797C114.31 7.79797 115.034 7.97066 115.631 8.31602C116.219 8.66139 116.518 9.10673 116.518 9.66114V24.7392C116.518 25.2118 116.21 25.648 115.613 26.0479C115.007 26.4387 114.283 26.6387 113.441 26.6387C112.573 26.6387 111.849 26.4478 111.27 26.0661C110.691 25.6753 110.41 25.239 110.41 24.7392Z" fill="white"/>
<path d="M119.938 20.0495V1.8359C119.938 1.31785 120.255 0.881596 120.889 0.52714C121.522 0.172684 122.21 0 122.979 0C123.793 0 124.508 0.172684 125.123 0.508962C125.739 0.845241 126.046 1.26332 126.046 1.77228V7.79803H130.498C130.969 7.79803 131.34 8.03434 131.602 8.50694C131.864 8.97955 132 9.53396 132 10.1702C132 10.8336 131.864 11.3971 131.602 11.8516C131.34 12.3151 130.969 12.5423 130.498 12.5423H126.046V19.8132C126.046 20.3585 126.164 20.7311 126.399 20.9402C126.634 21.1492 127.051 21.2583 127.657 21.2583H129.349C130.19 21.2583 130.833 21.5309 131.276 22.0672C131.72 22.6034 131.946 23.2305 131.946 23.9485C131.946 24.6938 131.72 25.33 131.276 25.8571C130.833 26.3842 130.19 26.6478 129.349 26.6478H127.657C122.517 26.6387 119.938 24.4393 119.938 20.0495Z" fill="white"/>
<path d="M26.069 20.522C25.6889 20.9038 25.0646 20.9038 24.6846 20.522L21.3909 17.2138C20.8118 16.6321 20.8299 15.6687 21.4452 15.1052C22.0243 14.5781 22.9201 14.6326 23.4721 15.187L25.3813 17.1047L32.9187 9.5339C33.4707 8.9795 34.3665 8.92496 34.9456 9.4521C35.5609 10.0156 35.579 10.9699 34.9999 11.5607L26.069 20.522Z" fill="#FF753A"/>
</g>
<defs>
<clipPath id="clip0">
<rect width="132" height="36" fill="white"/>
</clipPath>
</defs>
</svg>
